<svg xmlns="http://www.w3.org/2000/svg" xmlns:xlink="http://www.w3.org/1999/xlink" width="100" zoomAndPan="magnify" viewBox="0 0 75 74.999997" height="100" preserveAspectRatio="xMidYMid meet" version="1.0"><defs><clipPath id="6bf2c7ed79"><path d="M 5 3.207031 L 71.441406 3.207031 L 71.441406 69 L 5 69 Z M 5 3.207031 " clip-rule="nonzero"/></clipPath></defs><g clip-path="url(#6bf2c7ed79)"><path fill="#3998ff" d="M 71.394531 36.039062 C 71.394531 37.113281 71.34375 38.1875 71.238281 39.253906 C 71.132812 40.324219 70.976562 41.386719 70.765625 42.441406 C 70.558594 43.496094 70.296875 44.535156 69.984375 45.566406 C 69.671875 46.59375 69.3125 47.605469 68.898438 48.597656 C 68.488281 49.589844 68.03125 50.558594 67.523438 51.507812 C 67.015625 52.457031 66.464844 53.378906 65.867188 54.269531 C 65.269531 55.164062 64.632812 56.027344 63.949219 56.859375 C 63.269531 57.6875 62.546875 58.484375 61.789062 59.242188 C 61.027344 60.003906 60.230469 60.726562 59.402344 61.40625 C 58.570312 62.089844 57.707031 62.726562 56.816406 63.324219 C 55.921875 63.921875 55 64.472656 54.054688 64.980469 C 53.105469 65.488281 52.136719 65.945312 51.140625 66.359375 C 50.148438 66.769531 49.136719 67.132812 48.109375 67.441406 C 47.082031 67.753906 46.039062 68.015625 44.984375 68.226562 C 43.933594 68.4375 42.871094 68.59375 41.800781 68.699219 C 40.730469 68.804688 39.660156 68.855469 38.585938 68.855469 C 37.507812 68.855469 36.4375 68.804688 35.367188 68.699219 C 34.296875 68.59375 33.238281 68.4375 32.183594 68.226562 C 31.128906 68.015625 30.085938 67.757812 29.058594 67.445312 C 28.03125 67.132812 27.019531 66.769531 26.027344 66.359375 C 25.035156 65.949219 24.0625 65.488281 23.113281 64.984375 C 22.167969 64.476562 21.246094 63.925781 20.351562 63.328125 C 19.460938 62.730469 18.597656 62.089844 17.765625 61.410156 C 16.9375 60.726562 16.140625 60.003906 15.378906 59.246094 C 14.621094 58.484375 13.898438 57.691406 13.21875 56.859375 C 12.535156 56.027344 11.894531 55.167969 11.300781 54.273438 C 10.703125 53.378906 10.148438 52.457031 9.644531 51.511719 C 9.136719 50.5625 8.679688 49.59375 8.265625 48.601562 C 7.855469 47.605469 7.492188 46.597656 7.183594 45.566406 C 6.871094 44.539062 6.609375 43.496094 6.398438 42.445312 C 6.191406 41.390625 6.03125 40.328125 5.925781 39.257812 C 5.820312 38.1875 5.769531 37.117188 5.769531 36.042969 C 5.769531 34.96875 5.824219 33.894531 5.925781 32.824219 C 6.03125 31.753906 6.191406 30.695312 6.402344 29.640625 C 6.609375 28.585938 6.871094 27.542969 7.183594 26.515625 C 7.496094 25.488281 7.855469 24.476562 8.269531 23.484375 C 8.679688 22.492188 9.136719 21.519531 9.644531 20.574219 C 10.152344 19.625 10.703125 18.703125 11.300781 17.8125 C 11.898438 16.917969 12.539062 16.054688 13.21875 15.222656 C 13.902344 14.394531 14.621094 13.597656 15.382812 12.839844 C 16.144531 12.078125 16.9375 11.359375 17.769531 10.675781 C 18.601562 9.996094 19.460938 9.355469 20.355469 8.757812 C 21.25 8.160156 22.171875 7.609375 23.117188 7.101562 C 24.066406 6.597656 25.035156 6.136719 26.03125 5.726562 C 27.023438 5.316406 28.03125 4.953125 29.0625 4.640625 C 30.089844 4.328125 31.132812 4.070312 32.1875 3.859375 C 33.238281 3.648438 34.300781 3.492188 35.371094 3.386719 C 36.441406 3.28125 37.511719 3.230469 38.585938 3.230469 C 39.664062 3.226562 40.738281 3.273438 41.808594 3.378906 C 42.878906 3.480469 43.941406 3.632812 44.996094 3.839844 C 46.050781 4.046875 47.09375 4.304688 48.125 4.617188 C 49.15625 4.925781 50.167969 5.285156 51.160156 5.695312 C 52.15625 6.105469 53.128906 6.5625 54.078125 7.070312 C 55.027344 7.574219 55.949219 8.125 56.84375 8.722656 C 57.738281 9.320312 58.601562 9.957031 59.433594 10.640625 C 60.265625 11.324219 61.0625 12.042969 61.820312 12.804688 C 62.582031 13.566406 63.304688 14.363281 63.984375 15.191406 C 64.667969 16.023438 65.308594 16.886719 65.902344 17.78125 C 66.5 18.679688 67.050781 19.601562 67.558594 20.550781 C 68.0625 21.5 68.519531 22.46875 68.929688 23.464844 C 69.339844 24.460938 69.699219 25.472656 70.011719 26.5 C 70.320312 27.53125 70.578125 28.574219 70.785156 29.628906 C 70.992188 30.683594 71.148438 31.75 71.25 32.820312 C 71.351562 33.890625 71.398438 34.964844 71.394531 36.039062 Z M 71.394531 36.039062 " fill-opacity="1" fill-rule="nonzero"/></g><path fill="#ffffff" d="M 63.898438 56.929688 C 63.121094 57.867188 62.296875 58.761719 61.421875 59.609375 C 60.546875 60.457031 59.628906 61.253906 58.664062 62 C 57.699219 62.742188 56.699219 63.433594 55.660156 64.066406 C 54.617188 64.699219 53.546875 65.273438 52.441406 65.789062 C 51.335938 66.304688 50.207031 66.753906 49.054688 67.144531 C 47.898438 67.53125 46.726562 67.855469 45.535156 68.113281 C 44.34375 68.371094 43.144531 68.5625 41.933594 68.6875 C 40.722656 68.808594 39.507812 68.867188 38.289062 68.855469 C 37.070312 68.84375 35.855469 68.765625 34.648438 68.621094 C 33.4375 68.472656 32.238281 68.261719 31.054688 67.980469 C 29.867188 67.703125 28.703125 67.355469 27.554688 66.949219 C 26.40625 66.539062 25.285156 66.066406 24.191406 65.53125 C 23.097656 65 22.035156 64.40625 21.007812 63.753906 C 19.976562 63.101562 18.988281 62.390625 18.039062 61.628906 C 17.089844 60.867188 16.183594 60.054688 15.324219 59.191406 C 14.464844 58.328125 13.65625 57.417969 12.898438 56.464844 C 16.394531 51.480469 21.8125 48.023438 33.207031 47.894531 C 46.355469 47.734375 56.027344 47.253906 60.023438 51.675781 C 61.476562 53.304688 62.769531 55.058594 63.898438 56.929688 Z M 63.898438 56.929688 " fill-opacity="1" fill-rule="nonzero"/><path fill="#14213d" d="M 27.714844 27.765625 C 21.40625 25.484375 22.4375 17.160156 23.332031 16.980469 C 24.226562 16.800781 26.148438 18.277344 26.238281 18.324219 C 26.328125 18.367188 25.792969 14.609375 27 12.863281 C 28.207031 11.121094 32.816406 14.65625 36.351562 14.699219 C 39.886719 14.746094 48.433594 14.96875 50.9375 17.207031 C 53.445312 19.441406 52.144531 24.230469 52.144531 24.230469 C 52.144531 24.230469 55.011719 24.992188 54.425781 29.019531 C 53.84375 33.046875 49.328125 36.503906 47.714844 39.40625 C 46.105469 42.304688 36.535156 42.84375 35.054688 38.636719 " fill-opacity="1" fill-rule="nonzero"/><path fill="#ffb5a6" d="M 38.109375 52.742188 C 33.519531 52.742188 32.847656 48.914062 32.828125 48.269531 C 32.828125 48.195312 32.820312 48.0625 32.828125 47.886719 C 32.820312 47.527344 32.820312 46.972656 32.820312 46.324219 C 32.835938 44.578125 32.855469 42.164062 32.828125 41.128906 L 41.585938 37.992188 L 43.175781 37.421875 L 44.941406 36.792969 C 44.941406 36.792969 44.933594 37.132812 44.914062 37.699219 C 44.90625 38.023438 44.894531 38.417969 44.886719 38.871094 C 44.886719 38.925781 44.882812 38.976562 44.875 39.03125 C 44.867188 39.6875 44.859375 40.4375 44.839844 41.222656 C 44.8125 43.691406 44.804688 46.464844 44.933594 47.464844 C 45.171875 49.40625 42.695312 52.742188 38.109375 52.742188 Z M 38.109375 52.742188 " fill-opacity="1" fill-rule="nonzero"/><path fill="#e86b70" d="M 44.949219 38.890625 C 44.929688 38.9375 44.90625 38.984375 44.875 39.03125 C 41.769531 45.417969 37.097656 47.953125 32.828125 47.886719 C 32.816406 47.527344 32.816406 46.972656 32.816406 46.324219 C 32.835938 44.578125 32.855469 42.164062 32.828125 41.128906 L 41.585938 37.992188 L 44.886719 38.871094 Z M 44.949219 38.890625 " fill-opacity="1" fill-rule="nonzero"/><path fill="#ffb5a6" d="M 27.542969 22.082031 C 32.644531 28.199219 45.242188 27.09375 45.242188 27.09375 C 45.242188 27.09375 45.480469 34.253906 46.734375 34.191406 C 47.984375 34.132812 48.195312 30.167969 51.265625 30.824219 C 54.339844 31.480469 52.429688 37.414062 50.042969 37.742188 C 47.65625 38.070312 47.0625 36.042969 47.0625 36.042969 C 47.0625 36.042969 42.660156 44.769531 35.679688 44.769531 C 28.699219 44.769531 26.914062 38.078125 26.957031 34.433594 C 26.996094 30.785156 27.542969 22.082031 27.542969 22.082031 Z M 27.542969 22.082031 " fill-opacity="1" fill-rule="nonzero"/></svg>